<svg width="848" height="509" viewBox="0 0 848 509" fill="none" xmlns="http://www.w3.org/2000/svg">
<g clip-path="url(#clip0_222_979)">
<path d="M848 0H0V508.8H848V0Z" fill="white"/>
<path d="M848 0H0V508.8H848V0Z" fill="url(#paint0_linear_222_979)"/>
<path d="M848 0H0V508.8H848V0Z" fill="url(#paint1_radial_222_979)"/>
<path d="M848 42.7293V508.8H192.213C192.976 240.161 421.136 22.6133 702.47 22.6133C753.038 22.6133 801.883 29.6428 848 42.7293Z" fill="url(#paint2_linear_222_979)"/>
<path d="M848 42.7293V508.8H192.213C192.976 240.161 421.136 22.6133 702.47 22.6133C753.038 22.6133 801.883 29.6428 848 42.7293Z" fill="url(#paint3_linear_222_979)"/>
<path d="M848 0H0V508.8H848V0Z" fill="url(#paint4_radial_222_979)"/>
<path d="M848 0H0V508.8H848V0Z" fill="url(#paint5_linear_222_979)"/>
<path d="M848 42.7293V508.8H192.213C192.976 240.161 421.136 22.6133 702.47 22.6133C753.038 22.6133 801.883 29.6428 848 42.7293Z" fill="url(#paint6_linear_222_979)"/>
<path d="M847.788 187.973V508.708H531.413C666.676 436.501 777.39 324.332 847.788 187.973Z" fill="url(#paint7_linear_222_979)"/>
</g>
<defs>
<linearGradient id="paint0_linear_222_979" x1="12.0136" y1="508.8" x2="12.0136" y2="9.1869" gradientUnits="userSpaceOnUse">
<stop stop-color="#20201F"/>
<stop offset="1" stop-color="#1C1B1A"/>
</linearGradient>
<radialGradient id="paint1_radial_222_979" cx="0" cy="0" r="1" gradientUnits="userSpaceOnUse" gradientTransform="translate(562.507 508.8) rotate(1.38093) scale(425.184 460.702)">
<stop stop-color="#242221"/>
<stop offset="0.951242" stop-color="#514946" stop-opacity="0"/>
</radialGradient>
<linearGradient id="paint2_linear_222_979" x1="250.871" y1="487.867" x2="814.108" y2="30.8468" gradientUnits="userSpaceOnUse">
<stop stop-color="#0F0F0F"/>
<stop offset="0.432661" stop-color="#141313"/>
<stop offset="1" stop-color="#0F0F0F"/>
</linearGradient>
<linearGradient id="paint3_linear_222_979" x1="438.154" y1="398.057" x2="918.907" y2="176.025" gradientUnits="userSpaceOnUse">
<stop stop-color="#0F0F0F" stop-opacity="0"/>
<stop offset="1" stop-color="#131313"/>
</linearGradient>
<radialGradient id="paint4_radial_222_979" cx="0" cy="0" r="1" gradientUnits="userSpaceOnUse" gradientTransform="translate(641.653 36.3933) rotate(116.738) scale(366.756 437.29)">
<stop stop-color="#1F1D1C"/>
<stop offset="0.951242" stop-color="#1E1D1C" stop-opacity="0"/>
</radialGradient>
<linearGradient id="paint5_linear_222_979" x1="698.54" y1="170.66" x2="508.8" y2="306.34" gradientUnits="userSpaceOnUse">
<stop stop-color="#191717"/>
<stop offset="0.951242" stop-color="#121212" stop-opacity="0"/>
</linearGradient>
<linearGradient id="paint6_linear_222_979" x1="369.955" y1="340.323" x2="167.281" y2="225.214" gradientUnits="userSpaceOnUse">
<stop stop-color="#101010" stop-opacity="0"/>
<stop offset="1" stop-color="#1B1B1B"/>
</linearGradient>
<linearGradient id="paint7_linear_222_979" x1="835.28" y1="275.953" x2="647.66" y2="474.526" gradientUnits="userSpaceOnUse">
<stop stop-color="#0F0F0F"/>
<stop offset="1" stop-color="#0F0F0F"/>
</linearGradient>
<clipPath id="clip0_222_979">
<rect width="848" height="508.8" fill="white"/>
</clipPath>
</defs>
</svg>
