<?xml version="1.0" encoding="UTF-8"?>
<!--Generator: Apple Native CoreSVG 232.5-->
<!DOCTYPE svg
PUBLIC "-//W3C//DTD SVG 1.1//EN"
       "http://www.w3.org/Graphics/SVG/1.1/DTD/svg11.dtd">
<svg version="1.1" xmlns="http://www.w3.org/2000/svg" xmlns:xlink="http://www.w3.org/1999/xlink" width="22.8003" height="21.3257">
 <g>
  <rect height="21.3257" opacity="0" width="22.8003" x="0" y="0"/>
  <path d="M20.2185 8.33375L20.2185 12.9919C20.2185 13.4216 19.8767 13.7732 19.4275 13.7732C18.9783 13.7732 18.6462 13.4216 18.6462 12.9919L18.6462 8.33375C18.6462 7.90406 18.9783 7.54273 19.4275 7.54273C19.8767 7.54273 20.2185 7.90406 20.2185 8.33375Z" fill="#000000" fill-opacity="0.85"/>
  <path d="M16.9373 3.41187L16.9373 12.7605L15.365 11.1891L15.365 3.41187C15.365 2.98218 15.697 2.62086 16.1462 2.62086C16.5857 2.62086 16.9373 2.98218 16.9373 3.41187Z" fill="#000000" fill-opacity="0.85"/>
  <path d="M13.6462 14.8312L13.6462 15.8044C13.6462 16.2439 13.3044 16.5857 12.865 16.5857C12.406 16.5857 12.074 16.2439 12.074 15.8044L12.074 13.2598ZM13.6462 6.37086L13.6462 9.47135L12.074 7.89997L12.074 6.37086C12.074 5.9314 12.406 5.57984 12.865 5.57984C13.3044 5.57984 13.6462 5.9314 13.6462 6.37086Z" fill="#000000" fill-opacity="0.85"/>
  <path d="M10.365 11.5518L10.365 20.072C10.365 20.5115 10.0232 20.863 9.56422 20.863C9.12476 20.863 8.79273 20.5115 8.79273 20.072L8.79273 9.98038ZM10.365 1.25367L10.365 6.19193L8.79273 4.62054L8.79273 1.25367C8.79273 0.814215 9.12476 0.462652 9.56422 0.462652C10.0232 0.462652 10.365 0.814215 10.365 1.25367Z" fill="#000000" fill-opacity="0.85"/>
  <path d="M7.08375 8.27234L7.08375 16.1365C7.08375 16.5759 6.73218 16.9275 6.28297 16.9275C5.84351 16.9275 5.51148 16.5759 5.51148 16.1365L5.51148 6.70095Z" fill="#000000" fill-opacity="0.85"/>
  <path d="M3.79273 9.18336L3.79273 12.1423C3.79273 12.5818 3.45093 12.9334 3.00172 12.9334C2.5525 12.9334 2.22047 12.5818 2.22047 12.1423L2.22047 9.18336C2.22047 8.7439 2.5525 8.38257 3.00172 8.38257C3.45093 8.38257 3.79273 8.7439 3.79273 9.18336Z" fill="#000000" fill-opacity="0.85"/>
  <path d="M20.3748 19.9451C20.6677 20.238 21.156 20.238 21.4392 19.9451C21.7322 19.6423 21.7322 19.1736 21.4392 18.8806L3.92945 1.36109C3.63648 1.06812 3.1482 1.06812 2.85523 1.36109C2.56226 1.64429 2.56226 2.14234 2.85523 2.42554Z" fill="#000000" fill-opacity="0.85"/>
 </g>
</svg>
